<svg xmlns="http://www.w3.org/2000/svg" xmlns:xlink="http://www.w3.org/1999/xlink" width="830" height="840" viewBox="0 0 830 840">
  <defs>
    <clipPath id="clip-path">
      <path id="path3666" d="M0-682.665H756.87V74.205H0Z" transform="translate(0 682.665)" fill="#ffff"/>
    </clipPath>
    <clipPath id="clip-Company">
      <rect width="830" height="840"/>
    </clipPath>
  </defs>
  <g id="Company" clip-path="url(#clip-Company)">
    <g id="g3660" transform="translate(37.057 724.722)">
      <g id="g3662" transform="translate(0 -682.665)">
        <g id="g3664" transform="translate(0 0)" clip-path="url(#clip-path)">
          <g id="g3670" transform="translate(89.089 31.087)">
            <path id="path3672" d="M33.451,79.492h-330.1a11.087,11.087,0,0,1-11.087-11.087V-481.461a46.934,46.934,0,0,1,32.01-44.527L29.918-628.727a11.087,11.087,0,0,1,10,1.507,11.088,11.088,0,0,1,4.616,9V68.405A11.087,11.087,0,0,1,33.451,79.492ZM-285.565,57.318H22.364V-602.795L-268.665-504.97a24.779,24.779,0,0,0-16.9,23.508Z" transform="translate(307.739 629.305)" fill="#ffff"/>
          </g>
          <g id="g3674" transform="translate(419.191 345.174)">
            <path id="path3676" d="M19.3,110.911H-166.486a11.087,11.087,0,0,1-11.087-11.087V-272.712A11.087,11.087,0,0,1-166.486-283.8H38.5a35.711,35.711,0,0,1,35.67,35.67v197.2A11.087,11.087,0,0,1,63.088-39.842,11.087,11.087,0,0,1,52-50.929v-197.2a13.512,13.512,0,0,0-13.5-13.5H-155.4V88.737H8.215V30.849a11.087,11.087,0,1,1,22.174,0V99.824A11.087,11.087,0,0,1,19.3,110.911Z" transform="translate(177.573 283.799)" fill="#ffff"/>
          </g>
          <g id="g3678" transform="translate(419.193 648.738)">
            <path id="path3680" d="M299.921,18.936H1.087A11.087,11.087,0,0,1-10,7.849V-61.124A11.087,11.087,0,0,1,1.087-72.211h315.5a11.087,11.087,0,0,1,11.087,11.087v52.3A27.788,27.788,0,0,1,299.921,18.936ZM12.174-3.238H299.921A5.589,5.589,0,0,0,305.5-8.82V-50.037H12.174Z" transform="translate(10 72.211)" fill="#ffff"/>
          </g>
          <g id="g3682" transform="translate(604.978 564.29)">
            <path id="path3684" d="M7.139-10H13.4A72.9,72.9,0,0,1,86.214,62.816V85.534A11.087,11.087,0,0,1,75.127,96.621H-54.59A11.087,11.087,0,0,1-65.677,85.534V62.816A72.9,72.9,0,0,1,7.139-10Zm56.9,84.447V62.816A50.7,50.7,0,0,0,13.4,12.174H7.139A50.7,50.7,0,0,0-43.5,62.816V74.447Z" transform="translate(65.677 10)" fill="#ffff"/>
          </g>
          <g id="g3686" transform="translate(0.001 648.738)">
            <path id="path3688" d="M75.141,18.936H2.721A27.787,27.787,0,0,1-25.035-8.82v-52.3A11.087,11.087,0,0,1-13.948-72.21H75.141A11.087,11.087,0,0,1,86.228-61.124V7.849A11.087,11.087,0,0,1,75.141,18.936Zm-78-68.973V-8.82A5.588,5.588,0,0,0,2.721-3.238H64.054v-46.8Z" transform="translate(25.035 72.21)" fill="#ffff"/>
          </g>
          <g id="g3690" transform="translate(-0.001 564.29)">
            <path id="path3692" d="M8.967-10h8.717A11.087,11.087,0,0,1,28.771,1.087V85.534A11.087,11.087,0,0,1,17.684,96.621h-89.09A11.087,11.087,0,0,1-82.493,85.534V81.46A91.564,91.564,0,0,1,8.967-10ZM6.6,74.447V12.214A69.392,69.392,0,0,0-59.967,74.447Z" transform="translate(82.493 10)" fill="#ffff"/>
          </g>
          <g id="g3694" transform="translate(419.192 31.086)">
            <path id="path3696" d="M12.341,42.967h-114.79A11.087,11.087,0,0,1-113.536,31.88V-282.2a11.087,11.087,0,0,1,6.757-10.207,11.087,11.087,0,0,1,12.035,2.235L9.1-189.793a47.22,47.22,0,0,1,14.326,33.776V-20.382A11.087,11.087,0,0,1,12.341-9.3,11.087,11.087,0,0,1,1.254-20.382V-156.017A24.931,24.931,0,0,0-6.309-173.85l-85.053-82.213V20.793h103.7a11.087,11.087,0,0,1,0,22.174Z" transform="translate(113.536 293.287)" fill="#ffff"/>
          </g>
          <g id="g3698" transform="translate(169.838 16.985)">
            <path id="path3700" d="M1.087,21.774A11.087,11.087,0,0,1-10,10.687V-64.187A34.179,34.179,0,0,1,24.148-98.32h2.336A34.172,34.172,0,0,1,60.617-64.187V-5.6A11.087,11.087,0,0,1,49.53,5.484,11.087,11.087,0,0,1,38.443-5.6V-64.187A11.973,11.973,0,0,0,26.484-76.146H24.148A11.98,11.98,0,0,0,12.174-64.187V10.687A11.087,11.087,0,0,1,1.087,21.774Z" transform="translate(10 98.32)" fill="#ffff"/>
          </g>
          <g id="g3702" transform="translate(169.834 114.888)">
            <path id="path3704" d="M-223.82,95.995a11.092,11.092,0,0,1-10.508-7.557A11.087,11.087,0,0,1-227.351,74.4L22-9.422A11.087,11.087,0,0,1,29.067,11.6L-220.286,95.414A11.074,11.074,0,0,1-223.82,95.995Z" transform="translate(234.909 10.003)" fill="#ffff"/>
          </g>
          <g id="g3706" transform="translate(169.834 194.684)">
            <path id="path3708" d="M-223.82,95.995a11.092,11.092,0,0,1-10.508-7.557A11.087,11.087,0,0,1-227.351,74.4L22-9.422A11.087,11.087,0,0,1,29.067,11.6L-220.286,95.414A11.074,11.074,0,0,1-223.82,95.995Z" transform="translate(234.909 10.003)" fill="#ffff"/>
          </g>
          <g id="g3710" transform="translate(169.834 274.481)">
            <path id="path3712" d="M-223.82,95.995a11.092,11.092,0,0,1-10.508-7.557A11.087,11.087,0,0,1-227.351,74.4L22-9.422A11.087,11.087,0,0,1,29.067,11.6L-220.286,95.414A11.074,11.074,0,0,1-223.82,95.995Z" transform="translate(234.909 10.003)" fill="#ffff"/>
          </g>
          <g id="g3714" transform="translate(169.834 354.277)">
            <path id="path3716" d="M-223.82,95.995a11.092,11.092,0,0,1-10.508-7.557A11.087,11.087,0,0,1-227.351,74.4L22-9.422A11.087,11.087,0,0,1,29.067,11.6L-220.286,95.414A11.074,11.074,0,0,1-223.82,95.995Z" transform="translate(234.909 10.003)" fill="#ffff"/>
          </g>
          <g id="g3718" transform="translate(169.835 504.054)">
            <path id="path3720" d="M-36.042,26.014A11.091,11.091,0,0,1-46.55,18.456,11.087,11.087,0,0,1-39.573,4.415L1.591-9.422A11.087,11.087,0,0,1,8.656,11.6L-32.508,25.433A11.078,11.078,0,0,1-36.042,26.014Z" transform="translate(47.131 10.003)" fill="#ffff"/>
          </g>
          <g id="g3722" transform="translate(260.648 434.074)">
            <path id="path3724" d="M-141.91,65.469a11.091,11.091,0,0,1-10.508-7.557,11.087,11.087,0,0,1,6.977-14.042L13.1-9.422A11.087,11.087,0,0,1,20.163,11.6L-138.376,64.888A11.078,11.078,0,0,1-141.91,65.469Z" transform="translate(152.998 10.003)" fill="#ffff"/>
          </g>
          <g id="g3726" transform="translate(169.839 578.559)">
            <path id="path3728" d="M13.969,25.817h-131.4A11.087,11.087,0,0,1-128.514,14.73V-79.458a27.447,27.447,0,0,1,20-26.353L-5.319-134.619a24.03,24.03,0,0,1,6.463-.89,23.956,23.956,0,0,1,23.912,23.946V14.73A11.087,11.087,0,0,1,13.969,25.817ZM-106.34,3.643H2.882V-111.563a1.784,1.784,0,0,0-1.738-1.772L-102.549-84.453a5.2,5.2,0,0,0-3.791,5Z" transform="translate(128.514 135.508)" fill="#ffff"/>
          </g>
          <g id="g3730" transform="translate(471.224 394.711)">
            <path id="path3732" d="M12.493,16.283H-96.235a18.718,18.718,0,0,1-18.7-18.7V-29.1a18.719,18.719,0,0,1,18.7-18.7H12.493a18.72,18.72,0,0,1,18.7,18.7V-2.414A18.719,18.719,0,0,1,12.493,16.283ZM-92.758-5.891H9.018V-25.626H-92.758Z" transform="translate(114.932 47.8)" fill="#ffff"/>
          </g>
          <g id="g3734" transform="translate(471.224 479.016)">
            <path id="path3736" d="M12.493,16.283H-96.235a18.719,18.719,0,0,1-18.7-18.7V-29.1a18.718,18.718,0,0,1,18.7-18.7H12.493a18.719,18.719,0,0,1,18.7,18.7V-2.416A18.72,18.72,0,0,1,12.493,16.283ZM-92.758-5.891H9.018V-25.626H-92.758Z" transform="translate(114.932 47.8)" fill="#ffff"/>
          </g>
          <g id="g3738" transform="translate(471.224 564.183)">
            <path id="path3740" d="M5.359,16.283H-30.6a18.718,18.718,0,0,1-18.7-18.7V-29.1A18.719,18.719,0,0,1-30.6-47.8H5.359a18.72,18.72,0,0,1,18.7,18.7V-2.414A18.719,18.719,0,0,1,5.359,16.283ZM-27.127-5.891H1.884V-25.626H-27.127Z" transform="translate(49.301 47.8)" fill="#ffff"/>
          </g>
          <g id="g3742" transform="translate(235.538 592.829)">
            <path id="path3744" d="M1.087,137.056A11.087,11.087,0,0,1-10,125.969V1.087a11.087,11.087,0,0,1,22.174,0V125.969A11.087,11.087,0,0,1,1.087,137.056Z" transform="translate(10 10)" fill="#ffff"/>
          </g>
        </g>
      </g>
    </g>
  </g>
</svg>
