<svg xmlns="http://www.w3.org/2000/svg" xmlns:xlink="http://www.w3.org/1999/xlink" width="830" height="840" viewBox="0 0 830 840">
  <defs>
    <clipPath id="clip-Location">
      <rect width="830" height="840"/>
    </clipPath>
  </defs>
  <g id="Location" clip-path="url(#clip-Location)">
    <g id="pin_4_" data-name="pin (4)" transform="translate(92.226 48.274)">
      <g id="Group_25068" data-name="Group 25068" transform="translate(48.08)">
        <g id="Group_25067" data-name="Group 25067">
          <path id="Path_11066" data-name="Path 11066" d="M322.774,0C171.3,0,48.08,123.224,48.08,274.694c0,49.865,22.363,103.495,23.3,105.757,7.223,17.144,21.475,43.773,31.751,59.382L291.475,725.208c7.708,11.7,19.115,18.4,31.3,18.4s23.591-6.706,31.3-18.388L542.432,439.833c10.293-15.609,24.529-42.238,31.751-59.382.937-2.246,23.284-55.876,23.284-105.757C597.468,123.224,474.243,0,322.774,0ZM544.387,367.912c-6.447,15.367-19.713,40.138-28.94,54.131L327.088,707.434c-3.716,5.639-4.9,5.639-8.612,0L130.117,422.043c-9.226-13.993-22.493-38.78-28.94-54.147-.275-.663-20.78-50.027-20.78-93.2,0-133.647,108.73-242.377,242.377-242.377s242.377,108.73,242.377,242.377C565.151,317.934,544.6,367.427,544.387,367.912Z" transform="translate(-48.08)" fill="#ffff"/>
          <path id="Path_11067" data-name="Path 11067" d="M257.506,64.008c-80.194,0-145.426,65.248-145.426,145.426S177.312,354.86,257.506,354.86s145.426-65.248,145.426-145.426S337.7,64.008,257.506,64.008Zm0,258.535A113.109,113.109,0,1,1,370.615,209.434,113.244,113.244,0,0,1,257.506,322.543Z" transform="translate(17.188 65.276)" fill="#ffff"/>
        </g>
      </g>
    </g>
  </g>
</svg>
