<svg xmlns="http://www.w3.org/2000/svg" xmlns:xlink="http://www.w3.org/1999/xlink" width="830" height="629" viewBox="0 0 830 629">
  <defs>
    <clipPath id="clip-User_role">
      <rect width="830" height="629"/>
    </clipPath>
  </defs>
  <g id="User_role" data-name="User role" clip-path="url(#clip-User_role)">
    <g id="group_2_" data-name="group (2)" transform="translate(48.129 -34.155)">
      <g id="Group_25070" data-name="Group 25070" transform="translate(0 64)">
        <path id="Path_11084" data-name="Path 11084" d="M647.874,258.5A113.427,113.427,0,0,0,568.31,64a114.128,114.128,0,0,0-58.94,16.465A12.632,12.632,0,1,0,522.419,102.1a88.41,88.41,0,0,1,134.294,75.565,87.932,87.932,0,0,1-40.267,74.054,88.865,88.865,0,0,1-72.581,10.921,12.627,12.627,0,1,0-6.931,24.283,114,114,0,0,0,31.375,4.4,112.522,112.522,0,0,0,56.1-15.2,163.564,163.564,0,0,1,108.083,154.12V493.39H617.329A240.123,240.123,0,0,0,477.908,300.171a138.41,138.41,0,0,0,39.885-97.251C517.794,126.319,455.474,64,378.874,64S239.953,126.319,239.953,202.921A138.416,138.416,0,0,0,279.86,300.2a243.333,243.333,0,0,0-70.7,48.768A238.645,238.645,0,0,0,140.3,493.393H25.259V430.247a163.542,163.542,0,0,1,48.05-116.067,165.946,165.946,0,0,1,60.151-37.985,112.618,112.618,0,0,0,55.977,15.13,114,114,0,0,0,31.375-4.4,12.627,12.627,0,1,0-6.931-24.283,88.841,88.841,0,0,1-72.642-10.952,88.348,88.348,0,0,1,48.2-162.427A88.867,88.867,0,0,1,235.328,102.1a12.632,12.632,0,0,0,13.049-21.633,113.677,113.677,0,0,0-172.6,97.2,112.9,112.9,0,0,0,34.016,80.773,192.376,192.376,0,0,0-54.34,37.873A188.7,188.7,0,0,0,0,430.245V506.02a12.625,12.625,0,0,0,12.629,12.629H138.919V619.682a12.625,12.625,0,0,0,12.629,12.629H606.2a12.625,12.625,0,0,0,12.629-12.629V518.648H745.116a12.625,12.625,0,0,0,12.629-12.629V430.245A188.739,188.739,0,0,0,647.874,258.5ZM265.212,202.921A113.662,113.662,0,1,1,378.874,316.583,113.79,113.79,0,0,1,265.212,202.921ZM593.569,607.052H164.178v-88.4A213.711,213.711,0,0,1,227,366.834,216.9,216.9,0,0,1,301.94,318.5a138.478,138.478,0,0,0,153.981-.07A214.769,214.769,0,0,1,593.569,518.648v88.4Z" transform="translate(0 -64)" fill="#ffff"/>
      </g>
    </g>
  </g>
</svg>
